<svg preserveAspectRatio="xMidYMid meet" data-bbox="20 98.242 160.001 3.517" viewBox="20 98.242 160.001 3.517" height="200" width="200" xmlns="http://www.w3.org/2000/svg" data-type="color" role="presentation" aria-hidden="true" aria-label="">
<defs>
  <style>#comp-js8zxngj svg [data-color="1"] {fill: #415941;}</style>
</defs>
    <g>
        <path d="M20.614 100.336c9.892 1.924 20.274 1.426 30.283 1.166 12.76-.332 25.515-1.052 38.281-1.105 7.5-.031 14.965.716 22.448.524 7.727-.199 15.458-.916 23.18-.933 14.877-.031 29.83 3.192 44.583.002 1.071-.231.618-1.916-.452-1.685-15.07 3.26-30.476-.23-45.684-.057-7.211.083-14.409.76-21.626.926-7.486.172-14.946-.556-22.448-.524-12.329.051-24.647.726-36.97 1.069-10.265.286-20.994.906-31.143-1.067-1.07-.209-1.529 1.475-.452 1.684z" fill="#0B0A0B" data-color="1"></path>
    </g>
</svg>
