  <svg preserveAspectRatio="xMidYMid meet" data-bbox="20 65.359 160 69.279" viewBox="20 65.359 160 69.279" height="200" width="200" xmlns="http://www.w3.org/2000/svg" data-type="color" role="img" aria-label="Início"><defs><style>#comp-js8zsglq svg [data-color="1"] {fill: #415941;}</style></defs>
    <g>
        <path d="M74.468 66.58l.016.002a.196.196 0 0 0-.016-.002z" fill="#0B0A0B" data-color="1"></path>
        <path d="M179.655 105.563c-6.452.017-12.947-.245-19.392.084-3.775.193-7.515.775-11.284 1.031-5.653.384-11.306-.095-16.962-.083a764.23 764.23 0 0 1-6.424-.018c1.166-8.391-4.812-14.096-10.171-19.604-5.047-5.188-10.961-9.528-17.526-12.629-7.08-3.344-14.742-6.039-22.452-7.577-.257-.051-.869-.167-.976-.188-9.191-1.648-18.991-2.116-27.706 1.771-7.65 3.413-13.389 9.899-14.75 18.258-1.102 6.772.432 13.448 3.233 19.581-2.316-.021-4.632-.04-6.947-.055-2.666-.017-5.626-.664-8.112.473-.419.191-.055.812.361.622 2.591-1.184 6.82-.382 9.619-.362 1.807.013 3.613.029 5.42.045a57.073 57.073 0 0 0 2.713 5.023c4.379 7.227 9.919 14.632 17.506 18.747 8.017 4.349 17.809 4.45 26.657 3.41 9.424-1.108 18.629-4.006 26.958-8.539 7.258-3.95 14.527-9.733 16.057-18.264 1.186.007 2.372.02 3.557.023 5.685.014 11.39.381 17.068.223 4.299-.12 8.544-.786 12.827-1.088 6.877-.485 13.835-.148 20.725-.166.462.002.462-.718.001-.718zM43.967 70.988c8.765-5.318 19.349-5.227 29.171-3.584.297.049.972.169 1.075.186l-.008-.002c.035.007.029.005.008.002 6.417 1.201 12.737 3.292 18.774 5.741 6.595 2.675 12.702 6.219 18.088 10.888 1.682 1.457 3.185 3.088 4.752 4.662 2.752 2.764 5.584 5.525 7.331 9.066 1.427 2.892 1.771 5.814 1.342 8.622-3.619-.026-7.237-.063-10.856-.087-6.304-.042-12.633.245-18.931.086-4.083-.103-7.94-.362-12.018-.099-10.215.659-20.253-.079-30.479-.139-5.285-.031-10.57-.082-15.855-.132-1.618-3.438-2.826-7.045-3.367-10.806-1.411-9.805 2.367-19.182 10.973-24.404zm70.856 49.957c-7.001 5.134-15.46 8.567-23.876 10.583-8.595 2.058-18.121 2.972-26.832 1.073-8.64-1.883-15.083-7.458-20.271-14.351-2.652-3.523-5.164-7.308-7.135-11.326l.249.002c4.567.044 9.134.088 13.702.117 10.164.064 20.232.881 30.384.253 3.978-.246 7.686-.379 11.671-.1 5.907.415 11.928-.031 17.849-.009 4.603.018 9.206.064 13.808.096-1.082 5.403-4.99 10.32-9.549 13.662z" fill="#0B0A0B" data-color="1"></path>
    </g>
</svg>
